<?xml version="1.0" standalone="no"?>
<!DOCTYPE svg PUBLIC "-//W3C//DTD SVG 20000802//EN"
"http://www.w3.org/TR/2000/CR-SVG-20000802/DTD/svg-20000802.dtd">

<!-- ========================================================================= -->
<!-- Copyright (C) The Apache Software Foundation. All rights reserved.        -->
<!--                                                                           -->
<!-- This software is published under the terms of the Apache Software License -->
<!-- version 1.1, a copy of which has been included with this distribution in  -->
<!-- the LICENSE file.                                                         -->
<!-- ========================================================================= -->

<!-- ========================================================================= -->
<!-- Test description here                                                     -->
<!--                                                                           -->
<!-- @author vincent.hardy@eng.sun.com                                         -->
<!-- @version $Id$                                                             -->
<!-- ========================================================================= -->

<svg width="450" height="500" viewBox="0 0 450 500">
    <!-- ============================================================= -->
    <!-- Test content                                                  -->
    <!-- ============================================================= -->
    <g id="testContent" transform="translate(70, 100) scale(.75, .75)">

		<path style="stroke:none;fill-rule:nonzero;clip-rule:nonzero;stroke:#000000;stroke-miterlimit:4;" d="M21.25,142.047V40.914c0-6.188-0.57-10.773-1.707-13.754c-1.137-2.977-3.066-5.461-5.793-7.449c-1.137-0.766-2.367-1.395-3.695-1.891S7.043,16.883,5,16.5c-2.125-0.371-3.488-0.781-4.094-1.23S0,14.148,0,13.25
			c0-1.195,0.32-2.035,0.969-2.52C1.613,10.246,2.922,10,4.898,10c0.758,0,3.816,0.211,9.176,0.625c5.355,0.418,10.387,0.625,15.098,0.625c2.961,0,7.883-0.207,14.758-0.625C50.805,10.211,56.254,10,60.281,10c16.711,0,29.762,3.461,39.145,10.379
			S113.5,36.953,113.5,49.344c0,7.148-1.793,13.418-5.375,18.816c-3.586,5.398-9,9.996-16.242,13.797v2.18c11.574,2.051,20.445,6.547,26.613,13.492s9.254,15.879,9.254,26.805c0,15.406-5.184,27.645-15.551,36.715S87.727,174.75,69.883,174.75
			c-6.078,0-13.367-0.293-21.871-0.875C39.504,173.289,34.113,173,31.84,173c-6.762,0-13.863,0.348-21.301,1.043c-1.824,0.137-2.965,0.207-3.418,0.207c-0.609,0-1.199-0.344-1.77-1.027S4.5,171.816,4.5,171.051c0-1.598,1.355-2.93,4.074-3.996L8.688,167
			c1.809-0.836,3.223-1.574,4.242-2.223c1.02-0.645,1.906-1.387,2.66-2.223c2.039-2.047,3.492-4.516,4.359-7.402s1.301-7.254,1.301-13.105z M39.25,73.293c0,3.648,0.453,5.93,1.367,6.84c0.914,0.914,2.816,1.367,5.711,1.367h16.555
			c12.023,0,20.758-2.031,26.203-6.098c5.441-4.066,8.164-10.508,8.164-19.324c0-10.945-4.188-20.027-12.559-27.246C76.316,21.613,65.777,18,53.066,18c-5.711,0-9.441,0.855-11.191,2.566s-2.625,5.148-2.625,10.316v42.41z M39.25,150.82
			c0,6.539,1.789,10.953,5.371,13.242c3.578,2.293,11.16,3.438,22.746,3.438c14.172,0,24.82-3.031,31.945-9.094S110,143.25,110,131.125c0-13.031-4.234-23.188-12.695-30.461S76.988,89.75,61.742,89.75H47.469c-3.578,0-5.84,0.477-6.793,1.426
			s-1.426,3.285-1.426,7.004v52.641z"/>

		<path style="fill-rule:nonzero;clip-rule:nonzero;stroke:#000000;stroke-miterlimit:4; fill:#000000;stroke:none;" d="M194.531,162.035c-5.238,4.766-10.891,8.285-16.961,10.559c-6.07,2.27-12.863,3.406-20.375,3.406c-7.363,0-12.98-1.922-16.848-5.762c-3.871-3.844-5.805-9.414-5.805-16.719c0-9.359,4.266-16.758,12.805-22.195
			c8.535-5.438,23.766-10.215,45.695-14.324v-15.789c0-7.09-2.16-12.523-6.477-16.297s-10.523-5.664-18.625-5.664c-6.891,0-11.758,0.992-14.598,2.977s-4.258,5.336-4.258,10.063c0,1.984,0.281,4.27,0.852,6.863s0.855,4.156,0.855,4.688
			c0,1.07-0.516,1.945-1.547,2.633s-2.352,1.027-3.953,1.027c-3.055,0-5.652-0.816-7.793-2.449s-3.207-3.664-3.207-6.098c0-6.605,3.664-12.625,11-18.055c7.332-5.43,15.977-8.148,25.93-8.148c13.906,0,23.727,2.621,29.465,7.855
			c5.734,5.238,8.605,14.535,8.605,27.891v42.844c0,6.516,0.621,10.715,1.867,12.594s3.609,2.816,7.086,2.816c0.602,0,1.434-0.035,2.492-0.113c1.055-0.078,1.773-0.117,2.152-0.117c0.527,0,1.02,0.246,1.473,0.73c0.453,0.488,0.68,1.07,0.68,1.742
			c0,1.574-1.273,2.887-3.816,3.934s-5.785,1.574-9.73,1.574c-4.176,0-7.668-1.039-10.477-3.117s-4.973-5.191-6.488-9.348z M193.043,122.25c-16.43,3.43-27.789,7.273-34.074,11.535c-6.285,4.266-9.426,9.973-9.426,17.129c0,5.559,1.512,9.879,4.543,12.961
			c3.027,3.086,7.27,4.625,12.723,4.625c7.492,0,13.738-1.941,18.738-5.832c4.996-3.887,7.496-8.813,7.496-14.777V122.25z"/>
		<path style="fill-rule:nonzero;clip-rule:nonzero;stroke:#000000;stroke-miterlimit:4;stroke:none;fill:rgb(230, 30, 30)" d="M230.667,85.5h-8.586c-0.602,0-1.281-0.285-2.035-0.855s-1.129-1.164-1.129-1.773c0-0.531,1.648-2.246,4.953-5.141s6.398-5.941,9.285-9.141c2.051-2.207,4.309-5.48,6.777-9.824s4.309-6.516,5.527-6.516
			c0.68,0,1.137,0.195,1.363,0.578s0.344,1.152,0.344,2.301V76.25h20.266c4.555,0,8.539-0.902,11.953-2.711c0.984-0.523,1.668-0.789,2.051-0.789c0.301,0,0.527,0.133,0.68,0.395c0.152,0.266,0.23,0.695,0.23,1.297c0,3.086-0.93,5.777-2.789,8.07
			c-1.859,2.297-4.195,3.441-7.004,3.441c-0.453,0-1.137-0.074-2.047-0.227c-0.914-0.148-1.633-0.227-2.164-0.227h-21.176v64.957c0,5.688,1.383,9.992,4.156,12.914c2.77,2.922,6.813,4.379,12.125,4.379c4.93,0,10.055-1.441,15.367-4.324
			c1.594-0.832,2.617-1.25,3.074-1.25c0.68,0,1.23,0.117,1.648,0.344c0.418,0.23,0.629,0.574,0.629,1.031c0,2.75-2.816,5.598-8.441,8.539c-5.629,2.938-11.828,4.41-18.594,4.41c-9.43,0-16.199-2.379-20.305-7.133c-4.109-4.754-6.16-12.762-6.16-24.027V85.5z"/>
		<path style="fill-rule:nonzero;clip-rule:nonzero;stroke:#000000;stroke-miterlimit:4;stroke:none;fill:rgb(230, 30, 30);" d="M275.288,147.473v-42.039c0-7.898-0.703-12.984-2.105-15.266c-1.406-2.277-4.043-3.418-7.91-3.418c-2.199,0-3.828-0.227-4.891-0.68s-1.594-1.137-1.594-2.051c0-1.516,1.863-2.766,5.598-3.754l0.23-0.016
			c1.75-0.301,3.484-0.719,5.199-1.25c1.711-0.531,3.484-1.211,5.313-2.047c2.207-0.906,4.988-2.25,8.34-4.031s5.559-2.672,6.625-2.672c0.992,0,1.676,0.23,2.059,0.684c0.379,0.457,0.57,1.48,0.57,3.074c0,0.305-0.039,1.484-0.117,3.531
			c-0.379,11.391-0.566,22.93-0.566,34.617v35.543c0,6.078,0.547,10.313,1.648,12.703c1.102,2.395,3.168,4.387,6.203,5.98c0.906,0.457,1.91,0.801,3.012,1.027s2.371,0.34,3.813,0.34c2.352,0.152,3.867,0.492,4.551,1.023c0.68,0.531,1.023,1.363,1.023,2.5
			c0,0.758-0.383,1.402-1.141,1.934C310.39,173.734,309.44,174,308.3,174c-0.531,0-3.266-0.211-8.199-0.625c-4.938-0.414-9.566-0.625-13.895-0.625c-6.305,0-12.383,0.375-18.227,1.125c-0.914,0.082-1.48,0.125-1.707,0.125c-0.762,0-1.406-0.25-1.938-0.738
			c-0.531-0.492-0.797-1.082-0.797-1.766c0-0.758,0.223-1.422,0.676-1.992s1.281-1.156,2.488-1.766c0.227-0.148,0.602-0.379,1.129-0.684c1.656-1.211,2.859-2.238,3.617-3.074c1.43-1.82,2.426-3.828,2.992-6.031c0.563-2.203,0.848-5.695,0.848-10.477z
			 M274.288,37.375c0-2.195,1.309-4.852,3.926-7.961s4.719-4.664,6.313-4.664c1.438,0,3.469,1.5,6.086,4.492c2.617,2.996,3.926,5.48,3.926,7.449c0,1.898-1.254,4.383-3.754,7.453c-2.504,3.07-4.742,4.605-6.711,4.605c-1.977,0-4.102-1.305-6.375-3.922
			s-3.41-5.102-3.41-7.453z"/>
		<path style="fill-rule:nonzero;clip-rule:nonzero;stroke:#000000;stroke-miterlimit:4;stroke:none;" d="M331.513,147.391V35.496c0-8.078-0.68-13.219-2.031-15.43s-3.906-3.316-7.664-3.316h-1.805c-1.387,0-2.465-0.242-3.23-0.734c-0.77-0.492-1.191-1.188-1.27-2.094c0-1.656,1.977-2.941,5.93-3.848l0.23-0.074
			c1.824-0.301,3.516-0.68,5.074-1.133s3.098-0.984,4.617-1.594c2.66-1.059,5.586-2.535,8.781-4.43C343.337,0.949,345.392,0,346.306,0c0.984,0,1.746,0.383,2.277,1.141s0.801,1.859,0.801,3.301c0,0.305-0.039,1.082-0.113,2.332c-0.078,1.254-0.113,2.375-0.113,3.359
			c-0.383,5.391-0.668,10.684-0.859,15.883s-0.285,10.531-0.285,15.996v80.641l33.148-30.207c1.434-1.367,2.566-2.715,3.398-4.047c0.832-1.328,1.25-2.527,1.25-3.594c0-1.289-1.324-2.316-3.969-3.078c-0.305-0.074-0.566-0.148-0.793-0.227
			c-1.891-0.375-3.215-0.828-3.969-1.359c-0.758-0.527-1.133-1.242-1.133-2.148c0-0.68,0.453-1.262,1.359-1.754s2.004-0.738,3.289-0.738c0.301,0,2.305,0.211,6.008,0.625c3.703,0.418,7.297,0.625,10.773,0.625c2.871,0,6.141-0.207,9.809-0.625
			c3.664-0.414,5.875-0.625,6.633-0.625c1.438,0,2.496,0.227,3.176,0.68s1.02,1.133,1.02,2.039c0,1.734-1.285,2.828-3.855,3.281h-0.113c-1.133,0.152-2.27,0.379-3.402,0.684s-2.305,0.723-3.516,1.254c-7.332,2.891-13.758,7.07-19.273,12.543
			c-0.605,0.684-1.059,1.141-1.359,1.367l-19.73,17.781c10.66,14.914,19.223,26.215,25.688,33.902s11.59,12.672,15.371,14.953c3.023,1.75,6.879,2.969,11.566,3.652c0.375,0.078,0.641,0.113,0.793,0.113c2.191,0.152,3.609,0.438,4.254,0.852
			c0.641,0.414,1,1.113,1.078,2.094c0,1.133-0.512,1.922-1.535,2.375s-3.012,0.68-5.965,0.68h-19.277c-5,0-15.23-10.113-30.684-30.34c-5.609-7.375-10.117-13.227-13.523-17.563l-6.516,6.156v15.617c0,6.852,0.531,11.344,1.602,13.477
			c1.066,2.133,3.086,3.883,6.059,5.25c1.219,0.535,3.121,0.992,5.715,1.371c0.078,0.023,0.152,0.031,0.23,0.031c2.133,0.152,3.523,0.492,4.172,1.023s0.973,1.363,0.973,2.5c0,0.836-0.344,1.496-1.027,1.988S364.142,174,363.001,174
			c-0.305,0-2.758-0.211-7.355-0.625c-4.602-0.414-8.992-0.625-13.172-0.625c-6.309,0-12.313,0.375-18.016,1.125c-0.914,0.082-1.445,0.125-1.594,0.125c-0.836,0-1.523-0.25-2.055-0.746s-0.797-1.09-0.797-1.777c0-0.766,0.262-1.473,0.789-2.121
			c0.523-0.648,1.613-1.434,3.27-2.355c0.375-0.227,0.789-0.492,1.242-0.797c1.273-0.758,2.215-1.445,2.816-2.055c1.277-1.367,2.16-3.074,2.648-5.129c0.488-2.051,0.734-5.926,0.734-11.629z"/>


			<path style="fill-rule:nonzero;clip-rule:nonzero;stroke:#000000;stroke-miterlimit:4;fill-opacity:0;stroke:none;" d="M29.25,234.167c4-42,302-44,348-24c-56,40-160,2-208,56c20,10,42,2,48,30c4,18-12,34-4,50"/>
			<path style="fill-rule:nonzero;clip-rule:nonzero;stroke:#000000;stroke-miterlimit:4;stroke:none;" d="M36.792,229.396c-0.018,0.1-0.377,1.375-0.439,1.492c-0.15,0.285-1.382,2.046-1.598,2.291c0.206-0.233,0.428-0.452,0.65-0.67c-6.851,6.751-0.262,0.713,0.893-0.499c1.893-1.986-2.124,1.712,0.112-0.08
				c0.604-0.484,1.242-0.925,1.886-1.355c-2.574,1.719,0.458-0.228,1.417-0.868c-2.634,1.761-1.231,0.788-0.604,0.423c1.799-1.049,3.686-1.946,5.591-2.783c0.978-0.43,1.969-0.828,2.964-1.217c1.844-0.723-1.918,0.683-0.003,0.012
				c0.706-0.264,1.412-0.528,2.117-0.792c-1.224,0.456-1.387,0.521-0.491,0.195c2.532-0.908,5.102-1.708,7.683-2.461c5.73-1.672,11.556-3.013,17.401-4.216c30.69-6.314,61.555-8.765,92.723-10.467c35.225-1.924,70.559-2.313,105.819-1.279
				c27.375,0.803,55.137,2.029,82.154,6.813c1.854,0.329,3.703,0.69,5.545,1.079c-2.182-0.459,0.631,0.149,1.102,0.26c0.785,0.185,1.566,0.383,2.347,0.586c2.714,0.705,5.407,1.536,7.987,2.642c0.676-4.98,1.351-9.959,2.026-14.939
				c-29.001,20.428-70.184,18.783-104.484,20.881c-37.85,2.314-78.422,7.341-105.371,37.024c-3.142,3.46-5.693,10.35-0.21,12.998c8.019,3.873,16.683,5.137,25.266,7.166c7.149,1.69,13.362,4.381,16.934,11.121c4.934,9.311,2.75,18.52-0.175,28.003
				c-3.217,10.427-5.508,20.886-0.691,31.219c4.218,9.05,19.441-3.641,15.822-11.611c-4.234-9.326,1.408-19.828,3.654-28.997c2.667-10.887,1.908-22.401-3.872-32.224c-9.76-16.587-31.066-13.847-46.449-21.271c-0.07,4.333-0.14,8.665-0.21,12.998
				c10.537-11.719,25.017-18.668,40.974-22.714c18.159-4.604,37.034-5.719,55.666-6.747c37.146-2.049,77.823-2.405,109.506-24.634c4.137-2.902,8.771-12.048,2.026-14.939c-7.868-3.373-16.687-4.781-25.083-6.132c-12.448-2.004-25.032-3.156-37.601-4.075
				c-33.215-2.427-66.599-2.839-99.887-2.247c-34.872,0.621-69.791,2.496-104.432,6.637c-24.317,2.907-50.972,6.113-73.187,17.171c-4.951,2.464-9.505,5.586-13.309,9.623c-1.027,1.089-2.19,2.464-2.986,3.643c0.137-0.203-3.419,6.639-1.518,3.165
				c-0.205,0.373-0.38,0.761-0.549,1.151c-1.126,2.59-2.056,5.322-2.196,8.168c-0.222,4.484,4.48,3.091,6.917,1.551c3.857-2.437,7.345-6.516,8.167-11.093z"/>


				<path d="M47.32,123.003c3.209-4.278,7.488-7.488,11.768-9.628c-3.209,8.559-9.628,16.047-12.837,24.604c4.279-3.209,8.558-6.418,11.768-10.697c-1.07,2.14-3.209,4.279-5.349,6.419c2.14-3.21,5.349-5.35,8.558-7.488c0,1.069-2.139,4.278-2.139,5.349
					c4.279-3.21,3.209-4.279,3.209-1.07"/>
				<path style="fill:#6666FF; fill-rule:nonzero" d="M49.151,125.875c2.782-3.428,5.975-5.999,9.896-8.025c-1.157-1.682-2.313-3.363-3.47-5.045c-3.53,8.583-9.506,15.878-12.989,24.507c-1.424,3.528,1.087,7.367,4.788,4.606c4.628-3.453,9.209-6.988,12.807-11.548
					c-1.737-1.683-3.474-3.367-5.21-5.05c-1.202,2.039-2.795,3.63-4.451,5.306c1.724,1.675,3.448,3.35,5.171,5.025c1.737-2.343,4.278-3.896,6.659-5.5c-1.726-1.112-3.451-2.225-5.177-3.337c-0.412,1.82-1.716,3.448-2.165,5.332c-0.819,3.436,2.431,5.561,5.228,3.37
					c1.089-0.854,2.121-1.741,3.154-2.66c0.27-0.239,2.352-2.78,1.087-1.242c-1.901,0.256-3.802,0.513-5.702,0.769c-0.442-1.809-0.591-2.103-0.447-0.882c0.061,0.692,0.135,1.383,0.222,2.072c0.547,4.68,6.211-1.189,6.884-2.749c0.4-0.927,0.82-1.863,0.974-2.869
					c0.502-3.274-2.216-5.746-5.165-3.328c-1.155,0.947-2.154,2.039-3.311,2.98c1.743,1.123,3.485,2.247,5.228,3.37c0.401-1.834,1.677-3.476,2.113-5.365c0.839-3.633-2.322-5.241-5.177-3.337c-4.064,2.711-7.515,5.555-10.457,9.476
					c-3.298,4.397,0.973,9.229,5.171,5.025c2.33-2.333,4.55-4.689,6.248-7.532c2.624-4.394-1.298-9.955-5.21-5.05c-3.095,3.878-6.791,6.867-10.729,9.847c1.596,1.536,3.192,3.071,4.788,4.606c3.412-8.649,9.323-16.011,12.686-24.702
					c0.948-2.451,0.194-7.002-3.47-5.045c-5.309,2.836-9.933,6.46-13.639,11.23c-1.319,1.698-3.073,4.564-1.68,6.745c1.317,2.063,4.239,0.358,5.342-1.001z"/>
				<path d="M77.273,112.306c1.07-1.07,2.139-2.14,4.279-3.209c-2.14,4.278-4.279,9.628-6.418,12.837c2.14-1.07,4.279-3.209,6.418-5.349c0,1.069-2.14,4.278-2.14,5.349c3.209-2.14,7.489-4.279,10.698-6.419c-2.14,3.21-4.279,7.488-6.418,10.698
					c1.07,0,4.279-2.14,5.349-3.21c-1.07,2.14-3.209,3.21-3.209,5.349c2.139-1.069,4.279-3.209,6.418-4.278"/>
				<path style="fill:#FF0000; fill-rule:nonzero" d="M78.324,116.553c1.096-1.054,2.151-1.838,3.494-2.567c-0.949-2.375-1.897-4.749-2.846-7.124c-1.96,3.858-3.554,8.012-5.898,11.658c-1.202,1.87-1.95,4.149-1.306,6.371c0.461,1.592,2.045,2.92,3.719,1.957
					c2.792-1.606,5.072-3.694,7.356-5.946c-1.631-1.296-3.263-2.592-4.895-3.888c0.423-2.181-0.838,1.041-1.041,1.472c-0.595,1.267-0.875,2.5-1.14,3.864c-0.396,2.038,1.298,6.28,4.05,4.513c3.503-2.25,7.211-4.155,10.708-6.416c-0.86-2.792-1.721-5.585-2.582-8.377
					c-2.26,3.496-4.16,7.206-6.418,10.698c-1.166,1.803-3.031,9.546,1.622,8.659c2.694-0.514,5.223-2.284,7.228-4.094c-1.4-2.216-2.8-4.432-4.2-6.647c-1.778,2.891-3.42,4.526-4.006,8.079c-0.355,2.151,1.243,6.147,4.078,4.521c2.237-1.284,4.183-2.973,6.394-4.286
					c2.267-1.346,3.457-4.071,3.248-6.675c-0.156-1.958-1.757-4.435-4.028-3.175c-2.268,1.258-4.202,2.985-6.443,4.271c1.359,1.507,2.718,3.014,4.078,4.521c-0.546,1.443-0.411,1.567,0.405,0.371c0.791-0.92,1.374-1.959,2.007-2.989
					c1.777-2.889-0.048-10.396-4.2-6.647c-0.904,0.816-2.232,2.09-3.469,2.326c0.541,2.886,1.081,5.772,1.622,8.659c2.26-3.496,4.16-7.206,6.418-10.698c1.215-1.88,1.976-4.14,1.287-6.376c-0.469-1.523-2.212-3.072-3.869-2.001
					c-3.493,2.259-7.202,4.153-10.688,6.422c1.35,1.504,2.7,3.008,4.05,4.513c-0.386,2.161,0.771-1.038,0.976-1.492c0.577-1.275,0.877-2.497,1.123-3.869c0.493-2.755-2.101-6.695-4.895-3.888c-1.704,1.712-3.375,3.525-5.48,4.751
					c0.805,2.776,1.609,5.552,2.413,8.328c2.776-4.455,4.699-9.286,6.938-14.016c0.902-1.906,1.375-9.486-2.846-7.124c-1.896,1.062-3.539,2.305-5.064,3.851c-1.783,1.807-2.738,4.762-2.12,7.261c0.545,2.203,2.574,2.816,4.221,1.232z"/>
				<path d="M62.296,147.608c1.07-2.139,3.209-3.209,5.349-4.278c-2.14,3.209-3.209,8.558-5.349,12.837c3.209-3.209,7.488-5.349,10.698-8.559c-1.07,2.14-2.14,5.35-4.279,7.489c3.209-2.14,7.488-3.21,10.697-6.419c0,1.069-2.139,4.279-2.139,4.279
					c2.139-2.14,3.209-3.21,4.279-6.419c-2.14,1.069-4.279,2.14-6.418,2.14c0-1.07,2.14-3.209,3.209-4.279c-3.209,1.07-6.419,2.14-8.559,3.209c0,0,3.209-2.139,4.279-2.139c1.07-2.14-1.07,1.069-2.14,1.069"/>
				<path style="fill:#33CC33; fill-rule:nonzero" d="M66.082,147.9c0.783-0.504,1.606-0.938,2.469-1.301c-1.583-1.209-3.166-2.419-4.748-3.628c-2.467,3.958-3.437,8.551-5.454,12.714c-2.352,4.856,3.013,5.929,6.132,3.061c3.375-3.103,7.41-5.351,10.752-8.495
					c-2.078-1.06-4.155-2.12-6.232-3.18c-1.059,2.217-1.887,4.529-3.542,6.382c-3.301,3.697,0.169,7.709,4.344,5.127c4.005-2.477,8.331-4.002,11.861-7.245c-2.243-0.696-4.485-1.393-6.728-2.09c-0.215,1.156-1.024,2.196-1.661,3.169
					c-3.017,4.607,3.391,6.074,6.245,3.195c2.925-2.95,5.072-5.702,6.501-9.646c1.442-3.977-3.187-4.057-5.542-2.891c-1.384,0.685-2.487,1.158-4.031,1.306c1.048,1.237,2.097,2.475,3.145,3.712c0.126-0.477,1.472-1.595,1.965-2.097
					c2.829-2.878,1.001-6.963-3.061-5.589c-2.886,0.976-5.777,1.933-8.535,3.236c0.28,2.457,0.561,4.913,0.841,7.369c0.352-0.233,0.709-0.457,1.068-0.681c0.452-0.278,0.911-0.542,1.379-0.791c-0.923,0.3-0.714,0.262,0.625-0.115
					c2.552-0.935,4.937-3.571,5.073-6.385c0.152-3.138-3.762-2.989-5.618-1.687c-2.035,1.428-3.434,2.693-4.696,4.823c0.983-0.965,1.966-1.93,2.949-2.895c-0.115,0.083-0.23,0.166-0.345,0.249c-1.448,1.046-2.816,2.212-3.499,3.921
					c-0.501,1.257-0.279,3.353,1.588,3.168c1.579-0.156,3.114-0.367,4.511-1.193c-0.039,0.023,3.256-2.521,1.495-1.309c-1.873-0.562-3.746-1.125-5.618-1.687c0.139-0.475,0.279-0.949,0.418-1.423c1.762-1.264,3.523-2.527,5.285-3.79
					c-2.419,0.445-4.606,1.661-6.651,2.99c-1.732,1.127-3.505,2.876-3.606,5.088c-0.11,2.416,2.563,3.154,4.448,2.281c2.775-1.286,5.681-2.224,8.582-3.182c-0.685-2.2-1.37-4.4-2.054-6.601c-2.17,2.168-4.636,4.408-5.46,7.474c-0.628,2.334,0.756,3.929,3.145,3.712
					c3.196-0.29,5.958-1.573,8.806-2.973c-1.847-0.963-3.695-1.927-5.542-2.891c-0.48,1.318-1.071,2.204-2.056,3.192c2.082,1.065,4.164,2.13,6.245,3.195c1.067-1.621,2.254-3.462,2.617-5.39c0.854-4.542-4.149-4.445-6.728-2.09c-2.762,2.523-6.394,3.631-9.534,5.593
					c1.448,1.709,2.896,3.418,4.344,5.127c2.271-2.566,3.568-5.537,5.015-8.597c2.283-4.825-3.084-6.169-6.232-3.18c-3.327,3.158-7.349,5.426-10.644,8.623c2.044,1.021,4.088,2.041,6.132,3.061c1.927-4.203,2.888-8.988,5.245-12.96
					c2.417-4.073-1.607-5.273-4.748-3.628c-3.403,1.783-6.204,3.945-8.229,7.255c-0.98,1.601-1.226,4.278,1.271,4.468c2.564,0.195,5.004-1.875,6.301-3.884z"/>

    </g>

    <!-- ============================================================= -->
    <!-- Batik sample mark                                             -->
    <!-- ============================================================= -->
    <defs>
	    <g id="BatikTag" style="fill-rule:nonzero;clip-rule:nonzero;fill:none;stroke:#000000;stroke-miterlimit:4;" transform="translate(410, 460) scale(.5, .5)">
			<path style="stroke:none;" d="M5.104,18.946c3.21-4.278,7.488-7.488,11.768-9.628c-3.209,8.559-9.628,16.047-12.837,24.604c4.279-3.209,8.558-6.417,11.768-10.697c-1.07,2.14-3.21,4.279-5.35,6.419c2.14-3.21,5.35-5.35,8.559-7.489c0,1.069-2.14,4.278-2.14,5.349
				c4.279-3.21,3.209-4.279,3.209-1.07"/>
			<path style="fill:#6666FF;stroke:none;" d="M6.936,21.818c2.783-3.428,5.975-6,9.896-8.026c-1.157-1.682-2.313-3.363-3.47-5.045C9.833,17.33,3.856,24.625,0.374,33.254c-1.424,3.527,1.087,7.367,4.788,4.606c4.627-3.453,9.209-6.988,12.807-11.547
				c-1.737-1.684-3.474-3.367-5.21-5.05c-1.203,2.039-2.795,3.63-4.451,5.307c1.724,1.675,3.448,3.35,5.171,5.025c1.737-2.343,4.278-3.897,6.66-5.501c-1.726-1.112-3.452-2.225-5.177-3.337c-0.412,1.82-1.716,3.448-2.165,5.333c-0.819,3.436,2.431,5.561,5.228,3.37
				c1.089-0.854,2.121-1.741,3.154-2.66c0.27-0.24,2.352-2.781,1.087-1.242c-1.901,0.256-3.802,0.513-5.703,0.769c-0.442-1.809-0.591-2.103-0.447-0.882c0.061,0.692,0.135,1.383,0.222,2.073c0.547,4.68,6.211-1.189,6.884-2.75c0.811-1.877,1.806-4.181,0.519-6.087
				c-1.083-1.603-3.412-1.174-4.709-0.111c-1.155,0.947-2.154,2.039-3.312,2.981c1.743,1.123,3.485,2.247,5.228,3.37c0.401-1.833,1.678-3.476,2.114-5.365c0.839-3.633-2.323-5.241-5.177-3.337c-4.064,2.711-7.516,5.555-10.458,9.477
				c-3.298,4.397,0.973,9.23,5.171,5.025c2.33-2.333,4.55-4.69,6.248-7.532c2.625-4.394-1.298-9.954-5.21-5.05c-3.095,3.879-6.791,6.867-10.729,9.846c1.596,1.536,3.192,3.071,4.788,4.606c3.412-8.648,9.323-16.01,12.686-24.701c0.948-2.451,0.194-7.002-3.47-5.045
				c-5.309,2.836-9.933,6.46-13.639,11.23c-1.319,1.698-3.073,4.564-1.681,6.745c1.318,2.063,4.239,0.358,5.343-1.001z"/>
			<path style="stroke:none;" d="M35.059,8.249c1.069-1.07,2.139-2.14,4.278-3.209c-2.14,4.278-4.278,9.628-6.418,12.837c2.14-1.07,4.278-3.209,6.418-5.349c0,1.069-2.14,4.278-2.14,5.349c3.21-2.14,7.489-4.279,10.698-6.419c-2.14,3.21-4.279,7.488-6.419,10.698
				c1.07,0,4.279-2.14,5.349-3.21c-1.069,2.14-3.209,3.21-3.209,5.349c2.14-1.069,4.279-3.209,6.419-4.278"/>
			<path style="fill:#FF0000;stroke:none;" d="M36.109,12.496c1.095-1.054,2.15-1.838,3.492-2.567c-0.948-2.375-1.896-4.749-2.846-7.124c-1.96,3.858-3.554,8.012-5.897,11.658c-1.202,1.87-1.95,4.148-1.307,6.371c0.462,1.592,2.045,2.92,3.72,1.958
				c2.792-1.606,5.072-3.694,7.356-5.946c-1.632-1.296-3.264-2.592-4.896-3.888c0.424-2.181-0.838,1.04-1.041,1.472c-0.595,1.267-0.875,2.5-1.14,3.864c-0.396,2.038,1.298,6.281,4.051,4.513c3.503-2.25,7.211-4.155,10.707-6.416c-0.86-2.792-1.721-5.585-2.581-8.377
				c-2.26,3.495-4.161,7.205-6.419,10.698c-1.165,1.803-3.031,9.546,1.621,8.659c2.694-0.513,5.224-2.283,7.229-4.094c-1.4-2.216-2.8-4.432-4.2-6.648c-1.777,2.892-3.42,4.527-4.006,8.079c-0.355,2.152,1.243,6.147,4.077,4.521c2.237-1.284,4.184-2.972,6.395-4.286
				c2.267-1.346,3.457-4.071,3.249-6.675c-0.156-1.958-1.758-4.435-4.028-3.175c-2.269,1.258-4.202,2.985-6.443,4.271c1.359,1.507,2.718,3.014,4.077,4.521c-0.546,1.443-0.411,1.566,0.405,0.371c0.791-0.92,1.374-1.96,2.007-2.989
				c1.776-2.889-0.048-10.398-4.2-6.648c-0.903,0.816-2.231,2.09-3.469,2.326c0.54,2.886,1.08,5.772,1.621,8.659c2.26-3.495,4.161-7.205,6.419-10.698c1.215-1.88,1.977-4.14,1.287-6.376c-0.469-1.523-2.212-3.072-3.868-2.001c-3.493,2.259-7.202,4.153-10.689,6.422
				c1.351,1.504,2.7,3.008,4.051,4.513c-0.387,2.161,0.771-1.038,0.976-1.492c0.576-1.276,0.877-2.497,1.123-3.869c0.492-2.755-2.101-6.696-4.896-3.888c-1.703,1.712-3.375,3.525-5.479,4.751c0.805,2.776,1.608,5.552,2.413,8.329
				c2.776-4.455,4.699-9.286,6.938-14.016c0.901-1.905,1.374-9.486-2.846-7.124c-1.896,1.062-3.539,2.305-5.064,3.851c-1.782,1.808-2.738,4.762-2.119,7.262c0.544,2.203,2.574,2.816,4.221,1.232z"/>
		<g>
			<path style="stroke:none;" d="M20.081,43.551c1.07-2.139,3.21-3.209,5.35-4.279c-2.14,3.209-3.21,8.559-5.35,12.838c3.21-3.209,7.488-5.35,10.698-8.559c-1.07,2.139-2.14,5.35-4.279,7.488c3.209-2.139,7.488-3.209,10.697-6.418c0,1.068-2.139,4.279-2.139,4.279
				c2.139-2.141,3.209-3.211,4.278-6.42c-2.14,1.07-4.278,2.141-6.418,2.141c0-1.07,2.14-3.209,3.209-4.279c-3.209,1.07-6.419,2.139-8.559,3.209c0,0,3.21-2.139,4.279-2.139c1.07-2.141-1.069,1.068-2.14,1.068"/>
			<path style="fill:#33CC33;stroke:none;" d="M23.867,43.843c0.783-0.505,1.606-0.938,2.469-1.303c-1.583-1.209-3.166-2.418-4.748-3.628c-2.467,3.958-3.438,8.552-5.454,12.715c-2.352,4.856,3.013,5.93,6.132,3.062c3.375-3.103,7.41-5.352,10.752-8.494
				c-2.077-1.061-4.155-2.12-6.233-3.181c-1.06,2.217-1.887,4.528-3.542,6.381c-3.303,3.697,0.169,7.708,4.344,5.127c4.006-2.477,8.331-4.001,11.86-7.244c-2.242-0.696-4.484-1.393-6.728-2.09c-0.215,1.156-1.023,2.195-1.66,3.169
				c-0.909,1.389-1.034,3.728,0.661,4.583c2.4,1.212,5.012-0.811,6.589-2.401c2.543-2.567,4.263-5.229,5.496-8.634c1.441-3.977-3.187-4.059-5.543-2.892c-1.384,0.686-2.486,1.159-4.03,1.308c1.048,1.237,2.097,2.475,3.145,3.712c0.126-0.477,1.472-1.595,1.965-2.097
				c2.829-2.879,1.002-6.963-3.061-5.589c-2.886,0.976-5.777,1.933-8.535,3.236c0.28,2.456,0.561,4.913,0.841,7.369c0.353-0.233,0.71-0.457,1.068-0.681c0.452-0.278,0.911-0.542,1.379-0.791c-0.923,0.301-0.715,0.262,0.625-0.115c2.554-0.936,4.936-3.57,5.073-6.386
				c0.154-3.139-3.763-2.987-5.618-1.686c-2.035,1.427-3.433,2.693-4.696,4.822c0.983-0.965,1.966-1.93,2.95-2.895c-0.115,0.083-0.23,0.166-0.346,0.249c-1.448,1.046-2.816,2.212-3.498,3.922c-0.501,1.257-0.279,3.353,1.588,3.168
				c1.578-0.156,3.114-0.367,4.511-1.193c-0.039,0.022,3.258-2.521,1.495-1.309c-1.873-0.563-3.745-1.124-5.618-1.687c0.139-0.475,0.279-0.948,0.418-1.423c1.762-1.264,3.523-2.527,5.284-3.79c-2.419,0.445-4.605,1.661-6.651,2.99
				c-1.733,1.127-3.506,2.876-3.606,5.088c-0.11,2.416,2.563,3.155,4.448,2.281c2.774-1.286,5.682-2.224,8.582-3.182c-0.685-2.2-1.37-4.4-2.055-6.601c-2.17,2.169-4.635,4.407-5.459,7.474c-0.628,2.334,0.756,3.929,3.145,3.712c3.196-0.29,5.958-1.573,8.806-2.974
				c-1.848-0.964-3.695-1.928-5.543-2.892c-0.48,1.317-1.07,2.204-2.056,3.192c2.082,1.065,4.164,2.13,6.245,3.195c1.067-1.622,2.254-3.462,2.617-5.39c0.854-4.543-4.149-4.445-6.728-2.09c-2.763,2.522-6.394,3.631-9.534,5.592c1.448,1.709,2.896,3.418,4.344,5.127
				c2.271-2.566,3.567-5.537,5.016-8.596c2.285-4.825-3.084-6.167-6.232-3.181c-3.328,3.158-7.349,5.427-10.644,8.623c2.044,1.021,4.088,2.041,6.132,3.062c1.928-4.204,2.889-8.989,5.246-12.961c2.416-4.073-1.608-5.275-4.749-3.628
				c-3.403,1.784-6.204,3.945-8.23,7.256c-0.98,1.602-1.226,4.278,1.271,4.469c2.564,0.194,5.004-1.876,6.301-3.885z"/>
		</g>
	</g>
    </defs>
    <rect x="1" y="1" width="446" height="496" fill="none" stroke="black" />
    <use xlink:href="#BatikTag" />
    
</svg>
